<svg class="hkplayer-close" xmlns="http://www.w3.org/2000/svg" viewBox="0 0 1024 1024" width="14" height="14">
    <path d="M622.276923 512l378.092308-378.092308c31.507692-31.507692 31.507692-78.769231 0-110.276923-31.507692-31.507692-78.769231-31.507692-110.276923 0L512 401.723077 133.907692 23.630769C102.4-7.876923 55.138462-7.876923 23.630769 23.630769c-31.507692 31.507692-31.507692 78.769231 0 110.276923l378.092308 378.092308-378.092308 378.092308c-31.507692 31.507692-31.507692 78.769231 0 110.276923 31.507692 31.507692 78.769231 31.507692 110.276923 0l378.092308-378.092308 378.092308 378.092308c31.507692 31.507692 78.769231 31.507692 110.276923 0 31.507692-31.507692 31.507692-78.769231 0-110.276923L622.276923 512z"></path>
</svg>