<?xml version="1.0" encoding="UTF-8"?>
<svg width="24px" height="24px" viewBox="0 0 24 24" version="1.1" xmlns="http://www.w3.org/2000/svg" xmlns:xlink="http://www.w3.org/1999/xlink">
    <title>全屏 退出@3x</title>
    <g id="全屏-退出" stroke="none" stroke-width="1" fill="none" fill-rule="evenodd">
        <path d="M6,13.7272727 C6.51283584,13.7272727 6.93550716,14.1133129 6.99327227,14.6106516 L7,14.7272727 L7,17 L9.27272727,17 C9.78556311,17 10.2082344,17.3860402 10.2659995,17.8833789 L10.2727273,18 C10.2727273,18.5128358 9.88668708,18.9355072 9.3893484,18.9932723 L9.27272727,19 L6.65454545,19 C5.78885893,19 5.07845455,18.3351581 5.00607317,17.4882151 L5,17.3454545 L5,14.7272727 C5,14.174988 5.44771525,13.7272727 6,13.7272727 Z M17.2727273,13 C17.825012,13 18.2727273,13.4477153 18.2727273,14 C18.2727273,14.5128358 17.8866871,14.9355072 17.3893484,14.9932723 L17.2727273,15 L16.414,14.999 L18.7071068,17.2928932 C19.0976311,17.6834175 19.0976311,18.3165825 18.7071068,18.7071068 C18.3466228,19.0675907 17.7793918,19.0953203 17.3871006,18.7902954 L17.2928932,18.7071068 L15,16.415 L15,17.2727273 C15,17.7855631 14.6139598,18.2082344 14.1166211,18.2659995 L14,18.2727273 C13.4871642,18.2727273 13.0644928,17.8866871 13.0067277,17.3893484 L13,17.2727273 L13,14.6545455 C13,13.7888589 13.6648419,13.0784546 14.5117849,13.0060732 L14.6545455,13 L17.2727273,13 Z M6.61289944,5.20970461 L6.70710678,5.29289322 L8.999,7.584 L9,6.72727273 C9,6.21443689 9.38604019,5.79176557 9.88337887,5.73400046 L10,5.72727273 C10.5128358,5.72727273 10.9355072,6.11331292 10.9932723,6.6106516 L11,6.72727273 L11,9.34545455 C11,10.2111411 10.3351581,10.9215454 9.48821506,10.9939268 L9.34545455,11 L6.72727273,11 C6.17498798,11 5.72727273,10.5522847 5.72727273,10 C5.72727273,9.48716416 6.11331292,9.06449284 6.6106516,9.00672773 L6.72727273,9 L7.585,9 L5.29289322,6.70710678 C4.90236893,6.31658249 4.90236893,5.68341751 5.29289322,5.29289322 C5.65337718,4.93240926 6.22060824,4.90467972 6.61289944,5.20970461 Z M17.3454545,5 C18.2111411,5 18.9215454,5.66484193 18.9939268,6.51178494 L19,6.65454545 L19,9.27272727 C19,9.82501202 18.5522847,10.2727273 18,10.2727273 C17.4871642,10.2727273 17.0644928,9.88668708 17.0067277,9.3893484 L17,9.27272727 L16.999,6.999 L14.7272727,7 C14.2144369,7 13.7917656,6.61395981 13.7340005,6.11662113 L13.7272727,6 C13.7272727,5.48716416 14.1133129,5.06449284 14.6106516,5.00672773 L14.7272727,5 L17.3454545,5 Z" id="形状结合" fill="#FFFFFF" fill-rule="nonzero"></path>
    </g>
</svg>