<?xml version="1.0" encoding="UTF-8"?>
<svg width="24px" height="24px" viewBox="0 0 24 24" version="1.1" xmlns="http://www.w3.org/2000/svg" xmlns:xlink="http://www.w3.org/1999/xlink">
    <title>网页全屏 退出@3x</title>
    <g id="网页全屏-退出" stroke="none" stroke-width="1" fill="none" fill-rule="evenodd">
        <path d="M17,4 C18.6568542,4 20,5.34314575 20,7 L20,7 L20,17 C20,18.6568542 18.6568542,20 17,20 L17,20 L7,20 C5.34314575,20 4,18.6568542 4,17 L4,17 L4,7 C4,5.34314575 5.34314575,4 7,4 L7,4 Z M17,6 L7,6 C6.44771525,6 6,6.44771525 6,7 L6,7 L6,17 C6,17.5522847 6.44771525,18 7,18 L7,18 L17,18 C17.5522847,18 18,17.5522847 18,17 L18,17 L18,7 C18,6.44771525 17.5522847,6 17,6 L17,6 Z M16,13 C16.5522847,13 17,13.4477153 17,14 C17,14.5128358 16.6139598,14.9355072 16.1166211,14.9932723 L16,15 L15,15 L15,16 C15,16.5128358 14.6139598,16.9355072 14.1166211,16.9932723 L14,17 C13.4871642,17 13.0644928,16.6139598 13.0067277,16.1166211 L13,16 L13,14 C13,13.4871642 13.3860402,13.0644928 13.8833789,13.0067277 L14,13 L16,13 Z M10,7 C10.5128358,7 10.9355072,7.38604019 10.9932723,7.88337887 L11,8 L11,10 C11,10.5128358 10.6139598,10.9355072 10.1166211,10.9932723 L10,11 L8,11 C7.44771525,11 7,10.5522847 7,10 C7,9.48716416 7.38604019,9.06449284 7.88337887,9.00672773 L8,9 L9,9 L9,8 C9,7.48716416 9.38604019,7.06449284 9.88337887,7.00672773 L10,7 Z" id="形状结合" fill="#FFFFFF" fill-rule="nonzero"></path>
    </g>
</svg>