<svg xmlns="http://www.w3.org/2000/svg" width="24" height="24" viewBox="0 0 24 24">
    <path d="M18.562,22.5H5.439A3.867,3.867,0,0,1,1.5,18.562V5.439A3.867,3.867,0,0,1,5.439,1.5H18.562A3.867,3.867,0,0,1,22.5,5.439V18.562A3.867,3.867,0,0,1,18.562,22.5Zm1.312-17.06a1.24,1.24,0,0,0-1.312-1.312H5.439A1.24,1.24,0,0,0,4.127,5.439V18.562a1.24,1.24,0,0,0,1.312,1.312H18.562a1.24,1.24,0,0,0,1.312-1.312V5.439Zm-2.625,10.5H15.938V17.25a1.24,1.24,0,0,1-1.312,1.312,1.24,1.24,0,0,1-1.312-1.312V14.625a1.24,1.24,0,0,1,1.312-1.312H17.25a1.24,1.24,0,0,1,1.312,1.312A1.24,1.24,0,0,1,17.25,15.938ZM9.376,10.688H6.751A1.24,1.24,0,0,1,5.439,9.376,1.24,1.24,0,0,1,6.751,8.064H8.064V6.751A1.24,1.24,0,0,1,9.376,5.439a1.24,1.24,0,0,1,1.312,1.312V9.376A1.24,1.24,0,0,1,9.376,10.688Z"></path>
</svg>
