<svg width="28px" height="28px" viewBox="0 0 28 28" version="1.1" xmlns="http://www.w3.org/2000/svg" xmlns:xlink="http://www.w3.org/1999/xlink">
    <g stroke="none" stroke-width="1" fill="none" fill-rule="evenodd">
        <g>
            <rect x="0" y="0" width="28" height="28"></rect>
            <path d="M17.0245418,5.0729201 C21.9548319,6.86739894 24.4969092,12.3189013 22.7024303,17.2491914 C20.9079515,22.1794814 15.4564491,24.7215587 10.5261591,22.9270799 C8.33961794,22.131244 6.55969948,20.5878837 5.4584388,18.5914211 C5.05831015,17.8660325 5.32198541,16.9536206 6.04737397,16.5534919 C6.77276254,16.1533633 7.68517451,16.4170385 8.08530316,17.1424271 C8.83942834,18.5095718 10.0539456,19.5626749 11.5522195,20.108002 C14.9255759,21.3358033 18.6555511,19.5964873 19.8833525,16.2231309 C21.1111538,12.8497746 19.3718377,9.11979928 15.9984814,7.89199796 C12.625125,6.66419665 8.89514969,8.40351269 7.66734838,11.7768691 C7.38400962,12.5553359 6.52324609,12.9567165 5.74477924,12.6733778 C5.32370594,12.5201196 5.01295813,12.1979222 4.86121974,11.8111887 C4.77192186,11.6192656 4.72206414,11.4051885 4.72206414,11.1794665 L4.72206414,11.1794665 L4.72206414,7.20389115 C4.72206414,6.37546403 5.39363701,5.70389115 6.22206414,5.70389115 C6.88793057,5.70389115 7.45246144,6.1377603 7.64837559,6.73821746 C10.1634129,4.61934286 13.7116446,3.86712413 17.0245418,5.0729201 Z" fill="#FFFFFF" fill-rule="nonzero"></path>
        </g>
    </g>
</svg>
