<svg xmlns="http://www.w3.org/2000/svg" width="24" height="24" viewBox="0 0 24 24">
    <path d="M18.562,22.5H5.439A3.867,3.867,0,0,1,1.5,18.562V5.439A3.867,3.867,0,0,1,5.439,1.5H18.562A3.867,3.867,0,0,1,22.5,5.439V18.562A3.867,3.867,0,0,1,18.562,22.5Zm1.312-17.06a1.24,1.24,0,0,0-1.312-1.312H5.439A1.24,1.24,0,0,0,4.127,5.439V18.562a1.24,1.24,0,0,0,1.312,1.312H18.562a1.24,1.24,0,0,0,1.312-1.312V5.439ZM17.75,18.562H15.125a1.312,1.312,0,1,1,0-2.625h1.312V14.625a1.312,1.312,0,0,1,2.625,0V17.25A1.24,1.24,0,0,1,17.75,18.562ZM9.876,8.064H8.564V9.376a1.24,1.24,0,0,1-1.312,1.312A1.24,1.24,0,0,1,5.939,9.376V6.751A1.24,1.24,0,0,1,7.251,5.439H9.876a1.24,1.24,0,0,1,1.312,1.312A1.24,1.24,0,0,1,9.876,8.064Z"></path>
</svg>
