<?xml version="1.0" encoding="UTF-8"?>
<svg width="24px" height="24px" viewBox="0 0 24 24" version="1.1" xmlns="http://www.w3.org/2000/svg" xmlns:xlink="http://www.w3.org/1999/xlink">
    <title>全屏@3x</title>
    <g id="全屏" stroke="none" stroke-width="1" fill="none" fill-rule="evenodd">
        <path d="M6,13.7272727 C6.51283584,13.7272727 6.93550716,14.1133129 6.99327227,14.6106516 L7,14.7272727 L7,17 L9.27272727,17 C9.78556311,17 10.2082344,17.3860402 10.2659995,17.8833789 L10.2727273,18 C10.2727273,18.5128358 9.88668708,18.9355072 9.3893484,18.9932723 L9.27272727,19 L6.65454545,19 C5.78885893,19 5.07845455,18.3351581 5.00607317,17.4882151 L5,17.3454545 L5,14.7272727 C5,14.174988 5.44771525,13.7272727 6,13.7272727 Z M14.6128994,13.2097046 L14.7071068,13.2928932 L17,15.585 L17,14.7272727 C17,14.2144369 17.3860402,13.7917656 17.8833789,13.7340005 L18,13.7272727 C18.5128358,13.7272727 18.9355072,14.1133129 18.9932723,14.6106516 L19,14.7272727 L19,17.3454545 C19,18.2111411 18.3351581,18.9215454 17.4882151,18.9939268 L17.3454545,19 L14.7272727,19 C14.174988,19 13.7272727,18.5522847 13.7272727,18 C13.7272727,17.4871642 14.1133129,17.0644928 14.6106516,17.0067277 L14.7272727,17 L15.585,17 L13.2928932,14.7071068 C12.9023689,14.3165825 12.9023689,13.6834175 13.2928932,13.2928932 C13.6533772,12.9324093 14.2206082,12.9046797 14.6128994,13.2097046 Z M9.27272727,5 C9.82501202,5 10.2727273,5.44771525 10.2727273,6 C10.2727273,6.51283584 9.88668708,6.93550716 9.3893484,6.99327227 L9.27272727,7 L8.415,7 L10.7071068,9.29289322 C11.0976311,9.68341751 11.0976311,10.3165825 10.7071068,10.7071068 C10.3466228,11.0675907 9.77939176,11.0953203 9.38710056,10.7902954 L9.29289322,10.7071068 L7,8.415 L7,9.27272727 C7,9.78556311 6.61395981,10.2082344 6.11662113,10.2659995 L6,10.2727273 C5.48716416,10.2727273 5.06449284,9.88668708 5.00672773,9.3893484 L5,9.27272727 L5,6.65454545 C5,5.78885893 5.66484193,5.07845455 6.51178494,5.00607317 L6.65454545,5 L9.27272727,5 Z M17.3454545,5 C18.2111411,5 18.9215454,5.66484193 18.9939268,6.51178494 L19,6.65454545 L19,9.27272727 C19,9.82501202 18.5522847,10.2727273 18,10.2727273 C17.4871642,10.2727273 17.0644928,9.88668708 17.0067277,9.3893484 L17,9.27272727 L17,7 L14.7272727,7 C14.2144369,7 13.7917656,6.61395981 13.7340005,6.11662113 L13.7272727,6 C13.7272727,5.48716416 14.1133129,5.06449284 14.6106516,5.00672773 L14.7272727,5 L17.3454545,5 Z" id="形状结合" fill="#FFFFFF" fill-rule="nonzero"></path>
    </g>
</svg>