<svg id="iqp-svg-camera" viewBox="0 0 1137 1024"> <path d="M1018.311111 1024H119.466667C51.2 1024 0 967.111111 0 898.844444v-625.777777c0-68.266667 51.2-125.155556 119.466667-125.155556h159.288889l28.444444-79.644444C324.266667 28.444444 369.777778 0 415.288889 0h301.511111c51.2 0 91.022222 28.444444 108.088889 79.644444l28.444444 73.955556h159.288889c68.266667 0 119.466667 56.888889 119.466667 125.155556v625.777777c5.688889 62.577778-45.511111 119.466667-113.777778 119.466667zM119.466667 267.377778s-5.688889 5.688889-5.688889 11.377778v625.777777l5.688889 5.688889h898.844444s5.688889-5.688889 5.688889-11.377778v-625.777777c0-5.688889-5.688889-11.377778-5.688889-11.377778h-238.933333l-56.888889-147.911111H415.288889s-5.688889 0-5.688889 5.688889l-56.888889 147.911111H119.466667zM568.888889 785.066667c-125.155556 0-227.555556-102.4-227.555556-227.555556s102.4-227.555556 227.555556-227.555555 227.555556 102.4 227.555555 227.555555-102.4 227.555556-227.555555 227.555556z m0-341.333334c-62.577778 0-113.777778 51.2-113.777778 113.777778s51.2 113.777778 113.777778 113.777778 113.777778-51.2 113.777778-113.777778-51.2-113.777778-113.777778-113.777778z" p-id="1753"></path> </svg>