<?xml version="1.0" encoding="UTF-8"?>
<svg width="28px" height="28px" viewBox="0 0 28 28" version="1.1" xmlns="http://www.w3.org/2000/svg" xmlns:xlink="http://www.w3.org/1999/xlink">
    <g stroke="none" stroke-width="1" fill="none" fill-rule="evenodd">
        <path d="M10.5261775,3.90789474 L10.3251355,3.91370713 C8.99218337,3.99091153 7.81447906,4.83133441 7.31366242,6.0819572 L7.077,6.671 L6.81578947,6.67105263 C4.29417358,6.67105263 2.25,8.71522621 2.25,11.2368421 L2.25,19.5263158 C2.25,22.0479317 4.29417358,24.0921053 6.81578947,24.0921053 L21.1842105,24.0921053 C23.7058264,24.0921053 25.75,22.0479317 25.75,19.5263158 L25.75,11.2368421 L25.7450304,11.0219094 C25.6328003,8.600085 23.6337803,6.67105263 21.1842105,6.67105263 L20.925,6.671 L20.6901031,6.08321384 C20.1645759,4.76939603 18.8921101,3.90789474 17.477085,3.90789474 L10.5261775,3.90789474 Z M10.5261775,6.40789474 L17.477085,6.40789474 C17.8698487,6.40789474 18.2230426,6.64701867 18.3689113,7.01169053 L18.9183515,8.38529098 C19.1081807,8.85986395 19.5678166,9.17105263 20.0789474,9.17105263 L21.1842105,9.17105263 C22.3251145,9.17105263 23.25,10.0959381 23.25,11.2368421 L23.25,19.5263158 C23.25,20.6672198 22.3251145,21.5921053 21.1842105,21.5921053 L6.81578947,21.5921053 C5.67488545,21.5921053 4.75,20.6672198 4.75,19.5263158 L4.75,11.2368421 C4.75,10.0959381 5.67488545,9.17105263 6.81578947,9.17105263 L7.92369165,9.17105263 C8.43464409,9.17105263 8.89415732,8.86007807 9.08410584,8.3857449 L9.63449081,7.01134173 C9.78045125,6.64685414 10.1335509,6.40789474 10.5261775,6.40789474 Z" fill="#FFFFFF" fill-rule="nonzero"></path>
        <path d="M14,9.98684211 C11.4783841,9.98684211 9.43421053,12.0310157 9.43421053,14.5526316 C9.43421053,17.0742475 11.4783841,19.1184211 14,19.1184211 C16.5216159,19.1184211 18.5657895,17.0742475 18.5657895,14.5526316 C18.5657895,12.0310157 16.5216159,9.98684211 14,9.98684211 Z M14,12.4868421 C15.140904,12.4868421 16.0657895,13.4117276 16.0657895,14.5526316 C16.0657895,15.6935356 15.140904,16.6184211 14,16.6184211 C12.859096,16.6184211 11.9342105,15.6935356 11.9342105,14.5526316 C11.9342105,13.4117276 12.859096,12.4868421 14,12.4868421 Z" fill="#FFFFFF" fill-rule="nonzero"></path>
    </g>
</svg>