<svg class="icon" viewBox="0 0 1024 1024" xmlns="http://www.w3.org/2000/svg" width="20" height="20"><path d="M960 448l-70.4 0c-12.8-64-32-115.2-64-160l51.2-51.2c25.6-25.6 25.6-64 0-89.6-25.6-25.6-64-25.6-89.6 0l-51.2 51.2C691.2 166.4 640 140.8 576 134.4L576 64c0-32-32-64-64-64C480 0 448 25.6 448 64l0 70.4c-64 12.8-115.2 32-160 64L236.8 147.2C211.2 128 172.8 128 147.2 147.2s-25.6 64 0 89.6l51.2 51.2C166.4 332.8 147.2 384 134.4 448L64 448C25.6 448 0 480 0 512c0 32 25.6 64 64 64l70.4 0c12.8 64 32 115.2 64 160l-51.2 51.2c-25.6 25.6-25.6 64 0 89.6s64 25.6 89.6 0l51.2-51.2c44.8 32 96 57.6 160 64L448 960c0 32 32 64 64 64 32 0 64-25.6 64-64l0-70.4c64-6.4 115.2-32 160-64l51.2 51.2c25.6 25.6 64 25.6 89.6 0 25.6-25.6 25.6-64 0-89.6l-51.2-51.2c32-44.8 57.6-96 64-160L960 576c32 0 64-32 64-64C1024 480 998.4 448 960 448zM512 768c-140.8 0-256-115.2-256-256 0-140.8 115.2-256 256-256s256 115.2 256 256C768 652.8 652.8 768 512 768z" fill="#ffffff"></path></svg>