<svg xmlns="http://www.w3.org/2000/svg" width="28" height="28" viewBox="0 0 28 28">
    <path fill="#fff" d="M 20.57 25.5 C 18.419935730782658 25.51609501264857 16.662441003697012 23.789017603313443 16.641 21.638999999999996C 16.641 6.361 16.641 6.361 16.641 6.361C 16.68918139255758 4.225607404744156 18.434063909555775 2.5196510011223547 20.570000000000014 2.5196510011223627C 22.705936090444258 2.519651001122371 24.450818607442436 4.225607404744185 24.499000000000002 6.361000000000018C 24.499000000000002 21.639 24.499000000000002 21.639 24.499000000000002 21.639C 24.47755899630298 23.789017603313457 22.720064269217325 25.516095012648577 20.569999999999986 25.499999999999996C 20.57 25.5 20.57 25.5 20.57 25.5M 7.4299999999999855 25.499999999999996 C 7.4299999999999855 25.499999999999996 7.4299999999999855 25.499999999999996 7.4299999999999855 25.499999999999996C 5.279546652516016 25.516649329606523 3.5214407273795896 23.789410913079355 3.499999999999999 21.639C 3.499999999999999 6.361 3.499999999999999 6.361 3.499999999999999 6.361C 3.5214403093372475 4.210195654866002 5.280157596304979 2.4827961521994055 7.4310000000000045 2.5000000000000004C 7.4310000000000045 2.5000000000000004 7.4310000000000045 2.5000000000000004 7.4310000000000045 2.5000000000000004C 9.581064269217341 2.4839049873514316 11.338558996302988 4.210982396686553 11.36 6.361000000000001C 11.36 21.639 11.36 21.639 11.36 21.639C 11.338558996302982 23.789017603313457 9.581064269217325 25.516095012648574 7.4309999999999885 25.499999999999996C 7.4299999999999855 25.499999999999996 7.4299999999999855 25.499999999999996 7.4299999999999855 25.499999999999996"></path>
</svg>