<?xml version="1.0" encoding="UTF-8"?>
<svg width="24px" height="24px" viewBox="0 0 24 24" version="1.1" xmlns="http://www.w3.org/2000/svg" xmlns:xlink="http://www.w3.org/1999/xlink">
    <title>小窗icon</title>
    <g id="小窗icon" stroke="none" stroke-width="1" fill="none" fill-rule="evenodd">
        <path d="M18.3585886,3.68405728 C20.063847,3.68405728 21.4384556,5.06506195 21.5253655,6.7821105 L21.5297288,6.9548968 L21.5297288,11.5007329 C21.5297288,12.0687972 21.0692216,12.5293043 20.5011573,12.5293043 C19.968597,12.5293043 19.5305694,12.1245618 19.4778963,11.6058984 L19.4725859,11.5007329 L19.4725859,6.9548968 C19.4725859,6.31441914 19.0212804,5.80443803 18.464197,5.74665644 L18.3585886,5.74120014 L5.50317613,5.74120014 C4.93422019,5.74120014 4.44944667,6.2135061 4.39438319,6.83641504 L4.38917881,6.9548968 L4.38917881,17.0451032 C4.38917881,17.6855809 4.84048434,18.195562 5.39756776,18.2533436 L5.50317613,18.2587999 L10.5458261,18.2587999 C11.1138904,18.2587999 11.5743975,18.719307 11.5743975,19.2873713 C11.5743975,19.8199316 11.1696549,20.2579592 10.6509915,20.3106323 L10.5458261,20.3159427 L5.50317613,20.3159427 C3.79791768,20.3159427 2.42330914,18.9349381 2.33639918,17.2178895 L2.33203596,17.0451032 L2.33203596,6.9548968 C2.33203596,5.21660639 3.65163616,3.77952784 5.3337879,3.68862193 L5.50317613,3.68405728 L18.3585886,3.68405728 Z M19.5683842,13.1985192 C20.6042662,13.1985192 21.4440145,14.0382675 21.4440145,15.0741495 L21.4440145,15.0741495 L21.4440145,18.3545982 C21.4440145,19.3904802 20.6042662,20.2302284 19.5683842,20.2302284 L19.5683842,20.2302284 L14.5761916,20.2302284 C13.5403096,20.2302284 12.7005613,19.3904802 12.7005613,18.3545982 L12.7005613,18.3545982 L12.7005613,15.0741495 C12.7005613,14.0382675 13.5403096,13.1985192 14.5761916,13.1985192 L14.5761916,13.1985192 Z M19.5582857,15.084 L14.586,15.084 L14.586,18.3437143 L19.5582857,18.3437143 L19.5582857,15.084 Z M7.44300371,8.06405695 L9.35503596,9.97605728 L9.35531796,9.47079761 C9.35531796,9.03122403 9.68620955,8.66893433 10.1124998,8.61942138 L10.2124608,8.61365475 C10.6520344,8.61365475 11.0143241,8.94454634 11.063837,9.37083664 L11.0696037,9.47079761 L11.0696037,12.2691169 C11.0696037,12.7086905 10.7387121,13.0709802 10.3124218,13.1204932 L10.2124608,13.1262598 L7.41414149,13.1262598 C6.94075456,13.1262598 6.55699863,12.7425039 6.55699863,12.2691169 C6.55699863,11.8295434 6.88789022,11.4672537 7.31418052,11.4177407 L7.41414149,11.4119741 L8.36603596,11.4110573 L6.23082066,9.27624001 C5.89608555,8.9415049 5.89608555,8.39879206 6.23082066,8.06405695 C6.56555577,7.72932185 7.1082686,7.72932185 7.44300371,8.06405695 Z" id="形状结合" fill="#FFFFFF" fill-rule="nonzero"></path>
    </g>
</svg>