<svg width="24px" height="24px" viewBox="0 0 24 24" version="1.1" xmlns="http://www.w3.org/2000/svg" xmlns:xlink="http://www.w3.org/1999/xlink">
    <g stroke="none" stroke-width="1" fill="none" fill-rule="evenodd">
        <g transform="translate(2.500000, 3.500000)" fill="#FFFFFF">
            <g transform="translate(6.876262, 8.188220) rotate(-45.000000) translate(-6.876262, -8.188220) translate(4.376262, 4.188220)">
                <path d="M0.805794117,2.71066875 C1.31862996,2.71066875 1.74130128,3.09670894 1.79906639,3.59404762 L1.80579412,3.71066875 L1.805,5.975 L4.0705,5.97537463 C4.58333584,5.97537463 5.00600716,6.36141482 5.06377227,6.85875351 L5.0705,6.97537463 C5.0705,7.48821047 4.68445981,7.91088179 4.18712113,7.9686469 L4.0705,7.97537463 L0.805794117,7.97537463 C0.292958278,7.97537463 -0.129713043,7.58933444 -0.187478151,7.09199576 L-0.194205883,6.97537463 L-0.194205883,3.71066875 C-0.194205883,3.158384 0.253509368,2.71066875 0.805794117,2.71066875 Z" id="路径" fill-rule="nonzero" transform="translate(2.438147, 5.343022) rotate(-45.000000) translate(-2.438147, -5.343022) "></path>
                <rect x="1.62245901" y="0.897834312" width="2" height="6.52941176" rx="1"></rect>
            </g>
            <path d="M18.9183534,0.798066832 C20.9078215,0.798066832 22.5115315,2.40923894 22.6129265,4.41246225 L22.6180169,4.61404627 L22.6180169,9.91752174 C22.6180169,10.5802634 22.0807586,11.1175217 21.4180169,11.1175217 C20.7966965,11.1175217 20.2856643,10.6453221 20.2242124,10.0402148 L20.2180169,9.91752174 L20.2180169,4.61404627 C20.2180169,3.86682233 19.6914938,3.27184437 19.0415631,3.20443251 L18.9183534,3.19806683 L3.92037215,3.19806683 C3.25659022,3.19806683 2.69102111,3.74909045 2.62678039,4.47581754 L2.62070862,4.61404627 L2.62070862,16.3859537 C2.62070862,17.1331777 3.14723173,17.7281556 3.79716239,17.7955675 L3.92037215,17.8019332 L9.80346374,17.8019332 C10.4662054,17.8019332 11.0034637,18.3391915 11.0034637,19.0019332 C11.0034637,19.6232535 10.5312641,20.1342857 9.92615676,20.1957377 L9.80346374,20.2019332 L3.92037215,20.2019332 C1.93090396,20.2019332 0.327193994,18.5907611 0.225799041,16.5875377 L0.220708617,16.3859537 L0.220708617,4.61404627 C0.220708617,2.58604079 1.76024219,0.909449149 3.72275255,0.803392253 L3.92037215,0.798066832 L18.9183534,0.798066832 Z" fill-rule="nonzero"></path>
            <path d="M20.3297816,11.8982724 L14.5055568,11.8982724 C13.2970279,11.8982724 12.3173215,12.8779787 12.3173215,14.0865077 L12.3173215,17.9136979 C12.3173215,19.1222269 13.2970279,20.1019332 14.5055568,20.1019332 L20.3297816,20.1019332 C21.5383106,20.1019332 22.5180169,19.1222269 22.5180169,17.9136979 L22.5180169,14.0865077 C22.5180169,12.8779787 21.5383106,11.8982724 20.3297816,11.8982724 Z M20.318,14.098 L20.318,17.901 L14.517,17.901 L14.517,14.098 L20.318,14.098 Z" fill-rule="nonzero"></path>
        </g>
    </g>
</svg>