<?xml version="1.0" encoding="UTF-8"?>
<svg width="24px" height="24px" viewBox="0 0 24 24" version="1.1" xmlns="http://www.w3.org/2000/svg" xmlns:xlink="http://www.w3.org/1999/xlink">
    <g stroke="none" stroke-width="1" fill="none" fill-rule="evenodd">
        <g transform="translate(2.142857, 3.000000)" fill="#FFFFFF">
            <g transform="translate(6.196984, 7.523551) rotate(-45.000000) translate(-6.196984, -7.523551) translate(2.196984, 3.523551)">
                <path d="M2.69068067,2.32343036 C3.13025425,2.32343036 3.49254395,2.65432195 3.5420569,3.08061225 L3.54782353,3.18057321 L3.54714286,5.12142857 L5.489,5.12174968 C5.92857358,5.12174968 6.29086328,5.45264128 6.34037623,5.87893158 L6.34614286,5.97889254 C6.34614286,6.41846612 6.01525127,6.78075582 5.58896096,6.83026877 L5.489,6.8360354 L2.69068067,6.8360354 C2.2511071,6.8360354 1.88881739,6.50514381 1.83930444,6.07885351 L1.83353781,5.97889254 L1.83353781,3.18057321 C1.83353781,2.70718629 2.21729374,2.32343036 2.69068067,2.32343036 Z" fill-rule="nonzero" transform="translate(4.089840, 4.579733) rotate(-45.000000) translate(-4.089840, -4.579733) "></path>
                <rect x="3.39067915" y="0.769572267" width="1.71428571" height="5.59663866" rx="0.857142857"></rect>
            </g>
            <path d="M16.2157314,0.684057285 C17.9209899,0.684057285 19.2955984,2.06506195 19.3825084,3.7821105 L19.3868716,3.9548968 L19.3868716,8.50073292 C19.3868716,9.06879723 18.9263645,9.52930435 18.3583002,9.52930435 C17.8257399,9.52930435 17.3877123,9.12456177 17.3350392,8.60589837 L17.3297288,8.50073292 L17.3297288,3.9548968 C17.3297288,3.31441914 16.8784232,2.80443803 16.3213398,2.74665644 L16.2157314,2.74120014 L3.36031899,2.74120014 C2.79136304,2.74120014 2.30658952,3.2135061 2.25152605,3.83641504 L2.24632167,3.9548968 L2.24632167,14.0451032 C2.24632167,14.6855809 2.6976272,15.195562 3.25471062,15.2533436 L3.36031899,15.2587999 L8.40296892,15.2587999 C8.97103323,15.2587999 9.43154035,15.719307 9.43154035,16.2873713 C9.43154035,16.8199316 9.02679776,17.2579592 8.50813437,17.3106323 L8.40296892,17.3159427 L3.36031899,17.3159427 C1.65506054,17.3159427 0.280451995,15.9349381 0.193542035,14.2178895 L0.189178814,14.0451032 L0.189178814,3.9548968 C0.189178814,2.21660639 1.50877902,0.779527842 3.19093075,0.688621932 L3.36031899,0.684057285 L16.2157314,0.684057285 Z" fill-rule="nonzero"></path>
            <path d="M17.4255271,10.1985192 L12.4333344,10.1985192 C11.3974525,10.1985192 10.5577042,11.0382675 10.5577042,12.0741495 L10.5577042,15.3545982 C10.5577042,16.3904802 11.3974525,17.2302284 12.4333344,17.2302284 L17.4255271,17.2302284 C18.4614091,17.2302284 19.3011573,16.3904802 19.3011573,15.3545982 L19.3011573,12.0741495 C19.3011573,11.0382675 18.4614091,10.1985192 17.4255271,10.1985192 Z M17.4154286,12.084 L17.4154286,15.3437143 L12.4431429,15.3437143 L12.4431429,12.084 L17.4154286,12.084 Z" fill-rule="nonzero"></path>
        </g>
    </g>
</svg>