<svg xmlns="http://www.w3.org/2000/svg" width="24" height="24" viewBox="0 0 24 24">
    <path d="M20.554,9.574a1.349,1.349,0,0,1-1.428-1.428V4.861H15.841a1.349,1.349,0,0,1-1.428-1.428,1.349,1.349,0,0,1,1.428-1.428h3.713a2.324,2.324,0,0,1,2.428,2.428V8.146A1.349,1.349,0,0,1,20.554,9.574Zm-1,3.856a1.349,1.349,0,0,1,1.428,1.428,1.349,1.349,0,0,1-1.428,1.428H18.269l3.285,3.285a1.38,1.38,0,0,1,0,2,1.381,1.381,0,0,1-2,0L16.27,18.285V19.57A1.349,1.349,0,0,1,14.841,21a1.349,1.349,0,0,1-1.428-1.428V15.857a2.407,2.407,0,0,1,2.428-2.428h3.713ZM8.129,10.574H4.415A1.349,1.349,0,0,1,2.987,9.145,1.349,1.349,0,0,1,4.415,7.717H5.7L2.416,4.433a1.38,1.38,0,0,1,0-2,1.381,1.381,0,0,1,2,0L7.7,5.718V4.433A1.349,1.349,0,0,1,9.128,3a1.431,1.431,0,0,1,1.428,1.428V8.146A2.407,2.407,0,0,1,8.129,10.574ZM3.415,14.429a1.349,1.349,0,0,1,1.428,1.428v3.285H8.129A1.431,1.431,0,0,1,9.557,20.57,1.349,1.349,0,0,1,8.129,22H4.415A2.324,2.324,0,0,1,1.987,19.57V15.857A1.349,1.349,0,0,1,3.415,14.429Z"></path>
</svg>
