<svg xmlns="http://www.w3.org/2000/svg" width="28" height="28" viewBox="0 0 28 28">
    <path fill="#fff" d="M 21.2 17.3 C 21.2 17.3 21.2 17.3 11.399999999999999 23.200000000000003C 9.599999999999998 24.300000000000004 7.299999999999999 23.700000000000003 6.199999999999998 21.900000000000002C 5.799999999999998 21.3 5.699999999999998 20.6 5.699999999999998 19.900000000000002C 5.699999999999998 8.1 5.699999999999998 8.1 5.699999999999998 8.1C 5.699999999999998 6 7.399999999999999 4.3 9.499999999999998 4.3C 10.199999999999998 4.3 10.899999999999999 4.5 11.499999999999998 4.8C 11.499999999999998 4.8 11.499999999999998 4.8 21.299999999999997 10.7C 23.099999999999998 11.799999999999999 23.699999999999996 14.1 22.599999999999998 15.899999999999999C 22.2 16.5 21.7 16.9 21.2 17.3C 21.2 17.3 21.2 17.3 21.2 17.3"></path>
</svg>
