<svg xmlns="http://www.w3.org/2000/svg" width="24" height="24" viewBox="0 0 24 24">
    <path d="M19.321,21.336H15.73a1.381,1.381,0,1,1,0-2.762h1.243L13.8,15.4a1.367,1.367,0,1,1,1.934-1.934l3.177,3.177V15.4a1.3,1.3,0,0,1,1.381-1.381A1.384,1.384,0,0,1,21.669,15.4v3.591A2.328,2.328,0,0,1,19.321,21.336ZM20.288,9.319a1.3,1.3,0,0,1-1.381-1.381V4.761H15.73A1.3,1.3,0,0,1,14.349,3.38,1.3,1.3,0,0,1,15.73,2h3.591a2.248,2.248,0,0,1,2.348,2.348V7.938A1.3,1.3,0,0,1,20.288,9.319Zm-11.05.967a1.254,1.254,0,0,1-.967-0.414L5.095,6.695V7.938A1.3,1.3,0,0,1,3.713,9.319,1.3,1.3,0,0,1,2.332,7.938V4.347A2.248,2.248,0,0,1,4.68,2H8.271A1.3,1.3,0,0,1,9.653,3.38,1.3,1.3,0,0,1,8.271,4.761H7.028l3.177,3.177a1.335,1.335,0,0,1,0,1.934A1.254,1.254,0,0,1,9.238,10.286ZM3.713,14.015A1.3,1.3,0,0,1,5.095,15.4v3.177H8.271a1.384,1.384,0,0,1,1.381,1.381,1.3,1.3,0,0,1-1.381,1.381H4.68a2.248,2.248,0,0,1-2.348-2.348V15.4A1.3,1.3,0,0,1,3.713,14.015Z"></path>
</svg>