<svg xmlns="http://www.w3.org/2000/svg" width="24" height="24" viewBox="0 0 24 24">
    <path d="M11.972,21a1.223,1.223,0,0,1-.86-0.321L4.768,16.393H2.617A1.651,1.651,0,0,1,1,14.786V9.214A1.493,1.493,0,0,1,2.51,7.607H4.66L11,3.321A1.224,1.224,0,0,1,11.865,3a1.651,1.651,0,0,1,1.613,1.607V19.393A1.606,1.606,0,0,1,11.972,21ZM11.435,6.584a0.429,0.429,0,0,0-.666-0.356L5.628,9.643a0.808,0.808,0,0,1-.538.107H3.476a0.428,0.428,0,0,0-.429.427V13.93a0.428,0.428,0,0,0,.429.427H5.09a1.532,1.532,0,0,1,.645.214l5.029,3.4a0.429,0.429,0,0,0,.67-0.353V6.584Z"></path>
    <path d="M 18.462 19.026 C 18.11202741885571 19.192371807971472 17.69951096195798 19.156920697887138 17.383055790751026 18.93327698423332C 17.06660061954407 18.709633270579506 16.895474657071414 18.332615348743587 16.93547275939622 17.94717983163222C 16.975470861721025 17.56174431452085 17.220365848482455 17.227898461054334 17.575999999999993 17.073999999999998C 19.503065966047238 16.149055224848485 20.762044365400822 14.235777327389055 20.849 12.100000000000001C 20.7895411014595 9.885731374036904 19.744842291752832 7.813568168121706 18.000000000000014 6.4490000000000105C 17.687571232471626 6.227316705062276 17.517141778245673 5.855794128081069 17.552910764850647 5.474381231562071C 17.58867975145562 5.092968335043074 17.82521301877115 4.75961081296272 18.173410772034128 4.599881220662566C 18.521608525297104 4.440151628362413 18.92857124108291 4.478316691375019 19.240999999268045 4.699999999480642C 21.555047213256636 6.465919797821486 22.93868176060517 9.189754766989893 23 12.099999999999998C 23 16.925 18.648 18.943 18.462 19.026C 18.462 19.026 18.462 19.026 18.462 19.026M 16.354 15.213 C 16.22554004933095 15.265926426850235 16.087935791017188 15.293107514912212 15.949 15.293C 15.436559057888177 15.293620973955175 14.995478496129243 14.93116027817956 14.896762320236064 14.428317140234798C 14.798046144342885 13.925474002290038 15.069357431585397 13.423159356516564 15.544 13.229999999999997C 16.00234124275058 13.034888241156017 16.313086036580206 12.599845529794537 16.349 12.102999999999996C 16.317250328107082 11.623423709949842 16.009073808263047 11.206272223012666 15.56 11.034999999999997C 15.040994176422148 10.80274013177266 14.793620131615882 10.205661846820117 14.996294902743882 9.674404255396786C 15.198969673871883 9.143146663973456 15.781175525425898 8.862553109482361 16.323000000000004 9.034999999999997C 17.61024217992674 9.511343040292777 18.47418737270433 10.72769215185149 18.5 12.1C 18.47058372971049 13.473372410728542 17.62692283691848 14.697584908470521 16.35399999999999 15.214000000000006C 16.354 15.213 16.354 15.213 16.354 15.213"></path>
</svg>
