<svg xmlns="http://www.w3.org/2000/svg" width="24" height="24" viewBox="0 0 24 24">
    <path d="M11.972,21a1.223,1.223,0,0,1-.86-0.321L4.768,16.393H2.617A1.651,1.651,0,0,1,1,14.786V9.214A1.493,1.493,0,0,1,2.51,7.607H4.66L11,3.321A1.224,1.224,0,0,1,11.865,3a1.651,1.651,0,0,1,1.613,1.607V19.393A1.606,1.606,0,0,1,11.972,21ZM11.435,6.584a0.429,0.429,0,0,0-.666-0.356L5.628,9.643a0.808,0.808,0,0,1-.538.107H3.476a0.428,0.428,0,0,0-.429.427V13.93a0.428,0.428,0,0,0,.429.427H5.09a1.532,1.532,0,0,1,.645.214l5.029,3.4a0.429,0.429,0,0,0,.67-0.353V6.584Z"></path>
    <path d="M 16.354 15.214 C 16.22554004933095 15.266926426850237 16.087935791017188 15.294107514912213 15.949 15.294C 15.436559057888177 15.294620973955176 14.995478496129243 14.93216027817956 14.896762320236064 14.429317140234799C 14.798046144342885 13.926474002290039 15.069357431585397 13.424159356516565 15.544 13.230999999999998C 16.00234124275058 13.035888241156018 16.313086036580206 12.600845529794539 16.349 12.103999999999997C 16.317250328107082 11.624423709949843 16.009073808263047 11.207272223012668 15.56 11.035999999999998C 15.040994176422148 10.803740131772662 14.793620131615882 10.206661846820118 14.996294902743882 9.675404255396787C 15.198969673871883 9.144146663973457 15.781175525425898 8.863553109482362 16.323000000000004 9.035999999999998C 17.60990718424283 9.5122101430101 18.473779789916595 10.728060241211486 18.5 12.099999999999998C 18.470583729710505 13.473372410728508 17.62692283691851 14.697584908470496 16.35400000000002 15.213999999999995C 16.354 15.214 16.354 15.214 16.354 15.214"></path>
</svg>
