<svg xmlns="http://www.w3.org/2000/svg" width="24" height="24" viewBox="0 0 24 24">
    <path d="M11.972,21a1.223,1.223,0,0,1-.86-0.321L4.768,16.393H2.617A1.651,1.651,0,0,1,1,14.786V9.214A1.493,1.493,0,0,1,2.51,7.607H4.66L11,3.321A1.224,1.224,0,0,1,11.865,3a1.651,1.651,0,0,1,1.613,1.607V19.393A1.606,1.606,0,0,1,11.972,21ZM11.435,6.584a0.429,0.429,0,0,0-.666-0.356L5.628,9.643a0.808,0.808,0,0,1-.538.107H3.476a0.428,0.428,0,0,0-.429.427V13.93a0.428,0.428,0,0,0,.429.427H5.09a1.532,1.532,0,0,1,.645.214l5.029,3.4a0.429,0.429,0,0,0,.67-0.353V6.584Z"></path>
    <path d="M 22.7 9.934 C 22.7 9.934 22.7 9.934 20.4 12.248C 20.4 12.248 20.4 12.248 22.599999999999998 14.460999999999999C 22.791724786783654 14.645216681730044 22.900088816756583 14.899616228974256 22.900088816756583 15.165499999999998C 22.900088816756583 15.43138377102574 22.791724786783654 15.685783318269952 22.599999999999998 15.869999999999997C 22.41808623922139 16.062548257815404 22.16489138896605 16.171661206339742 21.9 16.171661206339742C 21.635108611033946 16.171661206339742 21.381913760778605 16.062548257815404 21.2 15.869999999999997C 19 13.657 19 13.657 19 13.657C 19 13.657 19 13.657 16.7 15.971C 16.518086239221393 16.163548257815407 16.264891388966053 16.272661206339748 16 16.272661206339748C 15.735108611033947 16.272661206339748 15.481913760778607 16.163548257815407 15.3 15.971000000000002C 15.108591766152443 15.786815475563408 15.000431177316191 15.53263330180265 15.000431177316191 15.267000000000003C 15.000431177316191 15.001366698197357 15.108591766152443 14.747184524436598 15.3 14.563000000000004C 15.3 14.563000000000004 15.3 14.563000000000004 17.6 12.249000000000004C 17.6 12.249000000000004 17.6 12.249000000000004 15.400000000000002 10.036000000000005C 15.208275213216345 9.851783318269959 15.099911183243417 9.597383771025747 15.099911183243417 9.331500000000005C 15.099911183243417 9.065616228974264 15.208275213216345 8.811216681730052 15.400000000000004 8.627000000000006C 15.581913760778612 8.4344517421846 15.835108611033952 8.32533879366026 16.100000000000005 8.32533879366026C 16.364891388966058 8.32533879366026 16.618086239221398 8.4344517421846 16.800000000000004 8.627000000000006C 19 10.84 19 10.84 19 10.84C 19 10.84 19 10.84 21.3 8.526C 21.481913760778607 8.333451742184593 21.735108611033947 8.224338793660255 22 8.224338793660255C 22.264891388966053 8.224338793660255 22.518086239221393 8.333451742184593 22.7 8.526C 22.891408233847557 8.710184524436595 22.99956882268381 8.964366698197354 22.99956882268381 9.23C 22.99956882268381 9.495633301802647 22.891408233847557 9.749815475563405 22.7 9.934000000000001C 22.7 9.934 22.7 9.934 22.7 9.934"></path>
</svg>
